<svg width="35" height="28" viewBox="0 0 35 28" fill="none" xmlns="http://www.w3.org/2000/svg">
<path d="M32.0833 0H2.91667C1.30642 0 0 1.30642 0 2.91667V3.88889H35V2.91667C35 1.30642 33.6936 0 32.0833 0ZM0 24.3056C0 25.9158 1.30642 27.2222 2.91667 27.2222H32.0833C33.6936 27.2222 35 25.9158 35 24.3056V5.83333H0V24.3056ZM21.3889 10.2083C21.3889 9.94097 21.6076 9.72222 21.875 9.72222H30.625C30.8924 9.72222 31.1111 9.94097 31.1111 10.2083V11.1806C31.1111 11.4479 30.8924 11.6667 30.625 11.6667H21.875C21.6076 11.6667 21.3889 11.4479 21.3889 11.1806V10.2083ZM21.3889 14.0972C21.3889 13.8299 21.6076 13.6111 21.875 13.6111H30.625C30.8924 13.6111 31.1111 13.8299 31.1111 14.0972V15.0694C31.1111 15.3368 30.8924 15.5556 30.625 15.5556H21.875C21.6076 15.5556 21.3889 15.3368 21.3889 15.0694V14.0972ZM21.3889 17.9861C21.3889 17.7187 21.6076 17.5 21.875 17.5H30.625C30.8924 17.5 31.1111 17.7187 31.1111 17.9861V18.9583C31.1111 19.2257 30.8924 19.4444 30.625 19.4444H21.875C21.6076 19.4444 21.3889 19.2257 21.3889 18.9583V17.9861ZM10.6944 9.72222C12.8394 9.72222 14.5833 11.4661 14.5833 13.6111C14.5833 15.7561 12.8394 17.5 10.6944 17.5C8.54948 17.5 6.80556 15.7561 6.80556 13.6111C6.80556 11.4661 8.54948 9.72222 10.6944 9.72222ZM4.07726 22.1302C4.58767 20.5686 6.05208 19.4444 7.77778 19.4444H8.27604C9.02344 19.7543 9.83767 19.9306 10.6944 19.9306C11.5512 19.9306 12.3715 19.7543 13.1128 19.4444H13.6111C15.3368 19.4444 16.8012 20.5686 17.3116 22.1302C17.5061 22.7318 16.9957 23.3333 16.3637 23.3333H5.02517C4.39323 23.3333 3.88281 22.7257 4.07726 22.1302Z" fill="url(#paint0_linear_0_17)"/>
<defs>
<linearGradient id="paint0_linear_0_17" x1="0" y1="13.6111" x2="35" y2="13.6111" gradientUnits="userSpaceOnUse">
<stop stop-color="#444CF9"/>
<stop offset="1" stop-color="#F5C6CA"/>
</linearGradient>
</defs>
</svg>
