<svg width="36" height="25" viewBox="0 0 36 25" fill="none" xmlns="http://www.w3.org/2000/svg">
<path d="M5.36035 10.5C7.29082 10.5 8.86035 8.93047 8.86035 7C8.86035 5.06953 7.29082 3.5 5.36035 3.5C3.42988 3.5 1.86035 5.06953 1.86035 7C1.86035 8.93047 3.42988 10.5 5.36035 10.5ZM29.8604 10.5C31.7908 10.5 33.3604 8.93047 33.3604 7C33.3604 5.06953 31.7908 3.5 29.8604 3.5C27.9299 3.5 26.3604 5.06953 26.3604 7C26.3604 8.93047 27.9299 10.5 29.8604 10.5ZM31.6104 12.25H28.1104C27.1479 12.25 26.2783 12.6383 25.6439 13.2672C27.8479 14.4758 29.4119 16.6578 29.751 19.25H33.3604C34.3283 19.25 35.1104 18.468 35.1104 17.5V15.75C35.1104 13.8195 33.5408 12.25 31.6104 12.25ZM17.6104 12.25C20.9955 12.25 23.7354 9.51016 23.7354 6.125C23.7354 2.73984 20.9955 0 17.6104 0C14.2252 0 11.4854 2.73984 11.4854 6.125C11.4854 9.51016 14.2252 12.25 17.6104 12.25ZM21.8104 14H21.3564C20.2189 14.5469 18.9557 14.875 17.6104 14.875C16.265 14.875 15.0072 14.5469 13.8643 14H13.4104C9.93223 14 7.11035 16.8219 7.11035 20.3V21.875C7.11035 23.3242 8.28613 24.5 9.73535 24.5H25.4854C26.9346 24.5 28.1104 23.3242 28.1104 21.875V20.3C28.1104 16.8219 25.2885 14 21.8104 14ZM9.57676 13.2672C8.94238 12.6383 8.07285 12.25 7.11035 12.25H3.61035C1.67988 12.25 0.110352 13.8195 0.110352 15.75V17.5C0.110352 18.468 0.892383 19.25 1.86035 19.25H5.46426C5.80879 16.6578 7.37285 14.4758 9.57676 13.2672Z" fill="url(#paint0_linear_0_32)"/>
<defs>
<linearGradient id="paint0_linear_0_32" x1="0.110352" y1="12.25" x2="35.1104" y2="12.25" gradientUnits="userSpaceOnUse">
<stop stop-color="#444CF9"/>
<stop offset="1" stop-color="#F5C6CA"/>
</linearGradient>
</defs>
</svg>
