<svg width="31" height="31" viewBox="0 0 31 31" fill="none" xmlns="http://www.w3.org/2000/svg">
<path d="M8.26895 12.0511C8.00371 11.8528 7.73779 11.7537 7.47256 11.7537H6.28037V18.8952H7.47324C7.73848 18.8952 8.00439 18.7961 8.26963 18.5979C8.53486 18.3996 8.66748 18.1022 8.66748 17.7051V12.9438C8.6668 12.5474 8.5335 12.2493 8.26895 12.0511ZM27.6816 0H3.05859C1.4043 0 0.0617187 1.33916 0.0576172 2.99414V27.6309C0.0617187 29.2858 1.4043 30.625 3.05859 30.625H27.6816C29.3366 30.625 30.6785 29.2858 30.6826 27.6309V2.99414C30.6785 1.33916 29.3359 0 27.6816 0ZM10.5986 17.7181C10.5986 19.0039 9.80498 20.9521 7.29277 20.948H4.1209V9.6373H7.35977C9.78242 9.6373 10.5973 11.5828 10.5979 12.8693L10.5986 17.7181ZM17.4811 11.6573H13.8389V14.2837H16.0653V16.3051H13.8389V18.9308H17.4817V20.9521H13.2312C12.4683 20.972 11.8339 20.369 11.8147 19.6062V11.0537C11.7963 10.2915 12.3999 9.6585 13.1621 9.63935H17.4817L17.4811 11.6573ZM24.5658 19.5385C23.6635 21.6405 22.0468 21.2222 21.3229 19.5385L18.689 9.64004H20.9154L22.9464 17.4139L24.9678 9.64004H27.1949L24.5658 19.5385Z" fill="url(#paint0_linear_0_27)"/>
<defs>
<linearGradient id="paint0_linear_0_27" x1="0.0576172" y1="15.3125" x2="30.6826" y2="15.3125" gradientUnits="userSpaceOnUse">
<stop stop-color="#444CF9"/>
<stop offset="1" stop-color="#F5C6CA"/>
</linearGradient>
</defs>
</svg>
