<svg width="31" height="35" viewBox="0 0 31 35" fill="none" xmlns="http://www.w3.org/2000/svg">
<path d="M27.6709 15.3125H26.0303V10.3906C26.0303 4.66211 21.3682 0 15.6396 0C9.91113 0 5.24902 4.66211 5.24902 10.3906V15.3125H3.6084C1.79688 15.3125 0.327148 16.7822 0.327148 18.5938V31.7188C0.327148 33.5303 1.79688 35 3.6084 35H27.6709C29.4824 35 30.9521 33.5303 30.9521 31.7188V18.5938C30.9521 16.7822 29.4824 15.3125 27.6709 15.3125ZM20.5615 15.3125H10.7178V10.3906C10.7178 7.67676 12.9258 5.46875 15.6396 5.46875C18.3535 5.46875 20.5615 7.67676 20.5615 10.3906V15.3125Z" fill="url(#paint0_linear_0_22)"/>
<defs>
<linearGradient id="paint0_linear_0_22" x1="0.327148" y1="17.5" x2="30.9521" y2="17.5" gradientUnits="userSpaceOnUse">
<stop stop-color="#444CF9"/>
<stop offset="1" stop-color="#F5C6CA"/>
</linearGradient>
</defs>
</svg>
