<svg width="21" height="21" viewBox="0 0 21 21" fill="none" xmlns="http://www.w3.org/2000/svg">
<path d="M10.1719 0C4.55273 0 0 4.55273 0 10.1719C0 15.791 4.55273 20.3438 10.1719 20.3438C15.791 20.3438 20.3438 15.791 20.3438 10.1719C20.3438 4.55273 15.791 0 10.1719 0ZM15.1676 6.96855L13.4982 14.8354C13.3752 15.3932 13.043 15.5285 12.5795 15.266L10.0365 13.3916L8.81016 14.5729C8.6748 14.7082 8.55996 14.823 8.29746 14.823L8.47793 12.235L13.1906 7.97754C13.3957 7.79707 13.1455 7.69453 12.8748 7.875L7.05059 11.5418L4.54043 10.7584C3.99492 10.5861 3.98262 10.2129 4.65527 9.95039L14.4621 6.16875C14.9174 6.00469 15.3152 6.27949 15.1676 6.96855Z" fill="white"/>
</svg>
